<!DOCTYPE html>
<html lang="en-US">
  
<!-- Mirrored from leakfree.org/t/arg-the-pizza-code-mystery/10393?page=126 by HTTrack Website Copier/3.x [XR&CO'2014], Mon, 18 Jan 2021 16:00:34 GMT -->
<!-- Added by HTTrack --><meta http-equiv="content-type" content="text/html;charset=utf-8" /><!-- /Added by HTTrack -->
<head>
    <meta charset="utf-8">
    <title>[ARG] The Pizza Code Mystery - The Cafeteria - Leakfree</title>
    <meta name="description" content="I made a thread about this on reddit, read here. It basically started when I found this code behind a malfunctioning door. 
Here is the info copy-pasted from my reddit post.
What do we have now? 
In this thread I posted &amp;hellip;">
    <meta name="generator" content="Discourse 2.6.0.beta5 - https://github.com/discourse/discourse version b9fb1cebcd8c8dc34800692fd6f8b72c47b51ad3">
<link rel="icon" type="image/png" href="../../uploads/default/optimized/2X/1/1b69109125d4946f223f71d45e038e4e8e7410f9_2_32x32.png">
<link rel="apple-touch-icon" type="image/png" href="../../uploads/default/optimized/2X/1/1b69109125d4946f223f71d45e038e4e8e7410f9_2_180x180.png">
<meta name="theme-color" content="#ffffff">
<meta name="viewport" content="width=device-width, initial-scale=1.0, minimum-scale=1.0, user-scalable=yes, viewport-fit=cover">
<link rel="canonical" href="103934808.html?page=126" />
<script type="application/ld+json">{"@context":"http://schema.org","@type":"WebSite","url":"https://leakfree.org","potentialAction":{"@type":"SearchAction","target":"https://leakfree.org/search?q={search_term_string}","query-input":"required name=search_term_string"}}</script>
<link rel="search" type="application/opensearchdescription+xml" href="../../opensearch.xml" title="Leakfree Search">

      <link href="../../stylesheets/desktop_8_78a84313b1758221d1fdcffd1499666af5b5fdab.css_%3b%20filename_%3dUTF-8%27%27desktop_8_78a84313b1758221d1fdcffd1499666af5b5fdabd733.css?__ws=leakfree.org" media="all" rel="stylesheet" data-target="desktop" data-theme-id="11"/>
      <link href="../../stylesheets/desktop_theme_11_bcef0414ba3b66792586d18ce571f192263e1732.css_%3b%20filename_%3dUTF-8%27%27desktop_theme_11_bcef0414ba3b66792586d18ce571f192263e1732d733.css?__ws=leakfree.org" media="all" rel="stylesheet" data-target="desktop_theme" data-theme-id="11"/>
    <script data-ad-client="ca-pub-2079330348735278" async="" src="https://pagead2.googlesyndication.com/pagead/js/adsbygoogle.js"></script>
    
        <link rel="alternate" type="application/rss+xml" title="RSS feed of &#39;[ARG] The Pizza Code Mystery&#39;" href="10393.rss" />
    <meta property="og:site_name" content="Leakfree" />
<meta name="twitter:card" content="summary" />
<meta name="twitter:image" content="https://leakfree.org/uploads/default/original/2X/1/1b69109125d4946f223f71d45e038e4e8e7410f9.png" />
<meta property="og:image" content="https://leakfree.org/uploads/default/original/2X/1/1b69109125d4946f223f71d45e038e4e8e7410f9.png" />
<meta property="og:url" content="https://leakfree.org/t/arg-the-pizza-code-mystery/10393?page=126" />
<meta name="twitter:url" content="https://leakfree.org/t/arg-the-pizza-code-mystery/10393?page=126" />
<meta property="og:title" content="[ARG] The Pizza Code Mystery" />
<meta name="twitter:title" content="[ARG] The Pizza Code Mystery" />
<meta property="og:description" content="oh, your right" />
<meta name="twitter:description" content="oh, your right" />
<meta name="twitter:label1" value="Reading time" />
<meta name="twitter:data1" value="1600 mins 🕑" />
<meta name="twitter:label2" value="Likes" />
<meta name="twitter:data2" value="75 ❤" />
<meta property="article:published_time" content="2015-02-19T16:52:51+00:00" />
<meta property="og:ignore_canonical" content="true" />

        <link rel="prev" href="10393664c.html?page=125">
        <link rel="next" href="103930e14.html?page=127">


    
  </head>
  <body class="crawler">
    








<script src="../../theme-javascripts/451263f573ec5e4eb9c81f3085c4024d360f28d7.js_%3b%20filename_%3dUTF-8%27%27451263f573ec5e4eb9c81f3085c4024d360f28d7d733.js?__ws=leakfree.org"></script>
    <header>
      <a href="../../index.html">
          <img src="../../uploads/default/original/2X/b/b4f2bc6e5e04e842eae8b788313c606f873a973b.png" alt="Leakfree" id="site-logo" style="max-width: 150px;">
      </a>
    </header>
    <div id="main-outlet" class="wrap">
        <div id="topic-title">
    <h1>
      <a href="10393.html">[ARG] The Pizza Code Mystery</a>
    </h1>

      <div class="topic-category" itemscope itemtype="http://schema.org/BreadcrumbList">
          <span itemprop="itemListElement" itemscope itemtype="http://schema.org/ListItem">
            <a href="../../c/black-mesa-archive/6.html" class="badge-wrapper bullet" itemprop="item">
              <span class='badge-category-bg' style='background-color: #F1592A'></span>
              <span class='badge-category clear-badge'>
                <span class='category-name' itemprop='name'>Black Mesa Archive</span>
              </span>
            </a>
            <meta itemprop="position" content="1" />
          </span>
          <span itemprop="itemListElement" itemscope itemtype="http://schema.org/ListItem">
            <a href="../../c/black-mesa-archive/the-cafeteria/11.html" class="badge-wrapper bullet" itemprop="item">
              <span class='badge-category-bg' style='background-color: #F1592A'></span>
              <span class='badge-category clear-badge'>
                <span class='category-name' itemprop='name'>The Cafeteria</span>
              </span>
            </a>
            <meta itemprop="position" content="2" />
          </span>
      </div>

  </div>

  


      <div itemscope itemtype='http://schema.org/DiscussionForumPosting' class='topic-body crawler-post'>
        <div class='crawler-post-meta'>
          <div itemprop='publisher' itemscope itemtype="http://schema.org/Organization">
            <meta itemprop='name' content='Pixelblast Media LLC'>
              <div itemprop='logo' itemscope itemtype="http://schema.org/ImageObject">
                <meta itemprop='url' content='../../uploads/default/original/2X/b/b4f2bc6e5e04e842eae8b788313c606f873a973b.png'>
              </div>
          </div>
          <span class="creator" itemprop="author" itemscope itemtype="http://schema.org/Person">
            <a itemprop="url" href='../../u/Sherlock_killer.html'><span itemprop='name'>Sherlock_killer</span></a>
            
          </span>

          <link itemprop="mainEntityOfPage" href="10393.html">


          <span class="crawler-post-infos">
              <meta itemprop='datePublished' content='2015-02-19T16:52:51Z'>
              <time itemprop='dateModified' datetime='2018-11-25T04:23:11Z' class='post-time'>
                November 25, 2018,  4:23am
              </time>
          <span itemprop='position'>#2501</span>
          </span>
        </div>
        <div class='post' itemprop='articleBody'>
          <p>oh, your right</p>
        </div>

        <meta itemprop='headline' content='[ARG] The Pizza Code Mystery'>
          <meta itemprop='keywords' content=''>

        <div itemprop="interactionStatistic" itemscope itemtype="http://schema.org/InteractionCounter">
           <meta itemprop="interactionType" content="http://schema.org/LikeAction"/>
           <meta itemprop="userInteractionCount" content="1" />
           <span class='post-likes'>1 Like</span>
         </div>

         <div itemprop="interactionStatistic" itemscope itemtype="http://schema.org/InteractionCounter">
            <meta itemprop="interactionType" content="http://schema.org/CommentAction"/>
            <meta itemprop="userInteractionCount" content="0" />
          </div>

      </div>
      <div itemscope itemtype='http://schema.org/DiscussionForumPosting' class='topic-body crawler-post'>
        <div class='crawler-post-meta'>
          <div itemprop='publisher' itemscope itemtype="http://schema.org/Organization">
            <meta itemprop='name' content='Pixelblast Media LLC'>
              <div itemprop='logo' itemscope itemtype="http://schema.org/ImageObject">
                <meta itemprop='url' content='../../uploads/default/original/2X/b/b4f2bc6e5e04e842eae8b788313c606f873a973b.png'>
              </div>
          </div>
          <span class="creator" itemprop="author" itemscope itemtype="http://schema.org/Person">
            <a itemprop="url" href='../../u/pyth.html'><span itemprop='name'>pyth</span></a>
            
          </span>

          <link itemprop="mainEntityOfPage" href="10393.html">


          <span class="crawler-post-infos">
              <meta itemprop='datePublished' content='2015-02-19T17:00:38Z'>
              <time itemprop='dateModified' datetime='2020-08-11T11:14:45Z' class='post-time'>
                August 11, 2020, 11:14am
              </time>
          <span itemprop='position'>#2502</span>
          </span>
        </div>
        <div class='post' itemprop='articleBody'>
          <aside class="quote no-group" data-username="Sherlock_killer">
<div class="title">
<div class="quote-controls"></div>
<img alt="" width="20" height="20" src="../../letter_avatar_proxy/v4/letter/s/a87d85/40.png" class="avatar"> Sherlock_killer:</div>
<blockquote>
<p>If you click on the follow on twitter link at the new BMFR site there is this link <a href="https://www.localdesertsingles.com/" data-bbcode="true" rel="nofollow noopener">https://www.localdesertsingles.com</a>, when i checked it there was some stuff inside if you inspect the element with firefox. Also here is the twitter site that shows a link to the BMFR site <a href="https://twitter.com/time_van" data-bbcode="true" rel="nofollow noopener">https://twitter.com/time_van</a></p>
</blockquote>
</aside>
<p><a href="http://kxbm.net/" rel="nofollow noopener">kxbm.net</a>, the news article and <a href="http://localdesertsingles.com/" rel="nofollow noopener">localdesertsingles.com</a> also show ascii art inside the browser’s dev console: * <a href="https://i.imgur.com/gw9erVk.png" data-bbcode="true" rel="nofollow noopener">https://i.imgur.com/gw9erVk.png</a></p>
<ul>
<li><a href="https://i.imgur.com/tABu5zI.png" data-bbcode="true" rel="nofollow noopener">https://i.imgur.com/tABu5zI.png</a></li>
<li><a href="https://i.imgur.com/0XRT6qk.png" data-bbcode="true" rel="nofollow noopener">https://i.imgur.com/0XRT6qk.png</a></li>
</ul>
        </div>

        <meta itemprop='headline' content='[ARG] The Pizza Code Mystery'>

        <div itemprop="interactionStatistic" itemscope itemtype="http://schema.org/InteractionCounter">
           <meta itemprop="interactionType" content="http://schema.org/LikeAction"/>
           <meta itemprop="userInteractionCount" content="0" />
           <span class='post-likes'></span>
         </div>

         <div itemprop="interactionStatistic" itemscope itemtype="http://schema.org/InteractionCounter">
            <meta itemprop="interactionType" content="http://schema.org/CommentAction"/>
            <meta itemprop="userInteractionCount" content="0" />
          </div>

      </div>
      <div itemscope itemtype='http://schema.org/DiscussionForumPosting' class='topic-body crawler-post'>
        <div class='crawler-post-meta'>
          <div itemprop='publisher' itemscope itemtype="http://schema.org/Organization">
            <meta itemprop='name' content='Pixelblast Media LLC'>
              <div itemprop='logo' itemscope itemtype="http://schema.org/ImageObject">
                <meta itemprop='url' content='../../uploads/default/original/2X/b/b4f2bc6e5e04e842eae8b788313c606f873a973b.png'>
              </div>
          </div>
          <span class="creator" itemprop="author" itemscope itemtype="http://schema.org/Person">
            <a itemprop="url" href='../../u/thewizard99.html'><span itemprop='name'>thewizard99</span></a>
            
          </span>

          <link itemprop="mainEntityOfPage" href="10393.html">


          <span class="crawler-post-infos">
              <meta itemprop='datePublished' content='2015-02-19T17:05:18Z'>
              <time itemprop='dateModified' datetime='2020-08-11T11:14:45Z' class='post-time'>
                August 11, 2020, 11:14am
              </time>
          <span itemprop='position'>#2503</span>
          </span>
        </div>
        <div class='post' itemprop='articleBody'>
          <p>Ok i had a play about with the infomation on the <a href="https://www.bmrf.org/" data-bbcode="true" rel="nofollow noopener">https://www.bmrf.org/</a> website. The Keybase.txt. file which gave the group of text, can be decoded on <a href="https://keybase.io/vocatus" data-bbcode="true" rel="nofollow noopener">https://keybase.io/vocatus</a> &lt;— the users page, by clicking the Verify button and give the same infomation in the top of the keybase.txt file which is this</p>
<p>{<br>
“body”: {<br>
“key”: {<br>
“fingerprint”: “41574ddcb2c4c4743095815a07d1490f82a211a2”,<br>
“host”: “<a href="http://keybase.io/" rel="nofollow noopener">keybase.io</a>”,<br>
“key_id”: “07d1490f82a211a2”,<br>
“uid”: “14f55f12cf73544031e890d3f053a000”,<br>
“username”: “vocatus”<br>
},<br>
“service”: {<br>
“hostname”: “<a href="http://bmrf.org/" rel="nofollow noopener">bmrf.org</a>”,<br>
“protocol”: “http:”<br>
},<br>
“type”: “web_service_binding”,<br>
“version”: 1<br>
},<br>
“ctime”: 1407613324,<br>
“expire_in”: 157680000,<br>
“prev”: “46a5327272d9744e56a60b0eb204a003aedc99aaaeb53dceedf5745843678bec”,<br>
“seqno”: 5,<br>
“tag”: “signature”<br>
}</p>
<p>So other than the BMRS website address, its nothing worth of note.</p>
        </div>

        <meta itemprop='headline' content='[ARG] The Pizza Code Mystery'>

        <div itemprop="interactionStatistic" itemscope itemtype="http://schema.org/InteractionCounter">
           <meta itemprop="interactionType" content="http://schema.org/LikeAction"/>
           <meta itemprop="userInteractionCount" content="0" />
           <span class='post-likes'></span>
         </div>

         <div itemprop="interactionStatistic" itemscope itemtype="http://schema.org/InteractionCounter">
            <meta itemprop="interactionType" content="http://schema.org/CommentAction"/>
            <meta itemprop="userInteractionCount" content="0" />
          </div>

      </div>
      <div itemscope itemtype='http://schema.org/DiscussionForumPosting' class='topic-body crawler-post'>
        <div class='crawler-post-meta'>
          <div itemprop='publisher' itemscope itemtype="http://schema.org/Organization">
            <meta itemprop='name' content='Pixelblast Media LLC'>
              <div itemprop='logo' itemscope itemtype="http://schema.org/ImageObject">
                <meta itemprop='url' content='../../uploads/default/original/2X/b/b4f2bc6e5e04e842eae8b788313c606f873a973b.png'>
              </div>
          </div>
          <span class="creator" itemprop="author" itemscope itemtype="http://schema.org/Person">
            <a itemprop="url" href='../../u/thewizard99.html'><span itemprop='name'>thewizard99</span></a>
            
          </span>

          <link itemprop="mainEntityOfPage" href="10393.html">


          <span class="crawler-post-infos">
              <meta itemprop='datePublished' content='2015-02-19T17:11:14Z'>
              <time itemprop='dateModified' datetime='2020-08-11T11:14:45Z' class='post-time'>
                August 11, 2020, 11:14am
              </time>
          <span itemprop='position'>#2504</span>
          </span>
        </div>
        <div class='post' itemprop='articleBody'>
          <aside class="quote no-group" data-username="pyth">
<div class="title">
<div class="quote-controls"></div>
<img alt="" width="20" height="20" src="../../letter_avatar_proxy/v4/letter/p/e99b99/40.png" class="avatar"> pyth:</div>
<blockquote>
<aside class="quote no-group" data-username="Sherlock_killer">
<div class="title">
<div class="quote-controls"></div>
<img alt="" width="20" height="20" src="../../letter_avatar_proxy/v4/letter/s/a87d85/40.png" class="avatar"> Sherlock_killer:</div>
<blockquote>
<p><a href="http://kxbm.net/" rel="nofollow noopener">kxbm.net</a>, the news article and <a href="http://localdesertsingles.com/" rel="nofollow noopener">localdesertsingles.com</a> also show ascii art inside the browser’s dev console: * <a href="https://i.imgur.com/gw9erVk.png" data-bbcode="true" rel="nofollow noopener">https://i.imgur.com/gw9erVk.png</a></p>
</blockquote>
</aside>
</blockquote>
</aside>
<p>well thats intresting, when i went on to <a href="https://kxbm.net/" data-bbcode="true" rel="nofollow noopener">https://kxbm.net/</a> when i went to the first link, it bring up a website link to <a href="https://kxbm.net/assets/three.min.js" data-bbcode="true" rel="nofollow noopener">https://kxbm.net/assets/three.min.js</a>, in there is another link at the top <a href="https://github.com/mrdoob/three.js" data-bbcode="true" rel="nofollow noopener">https://github.com/mrdoob/three.js</a> which has a bunch of files sitting there, as well as a link to a <span class="mention">@WestLangley</span></p>
        </div>

        <meta itemprop='headline' content='[ARG] The Pizza Code Mystery'>

        <div itemprop="interactionStatistic" itemscope itemtype="http://schema.org/InteractionCounter">
           <meta itemprop="interactionType" content="http://schema.org/LikeAction"/>
           <meta itemprop="userInteractionCount" content="0" />
           <span class='post-likes'></span>
         </div>

         <div itemprop="interactionStatistic" itemscope itemtype="http://schema.org/InteractionCounter">
            <meta itemprop="interactionType" content="http://schema.org/CommentAction"/>
            <meta itemprop="userInteractionCount" content="0" />
          </div>

      </div>
      <div itemscope itemtype='http://schema.org/DiscussionForumPosting' class='topic-body crawler-post'>
        <div class='crawler-post-meta'>
          <div itemprop='publisher' itemscope itemtype="http://schema.org/Organization">
            <meta itemprop='name' content='Pixelblast Media LLC'>
              <div itemprop='logo' itemscope itemtype="http://schema.org/ImageObject">
                <meta itemprop='url' content='../../uploads/default/original/2X/b/b4f2bc6e5e04e842eae8b788313c606f873a973b.png'>
              </div>
          </div>
          <span class="creator" itemprop="author" itemscope itemtype="http://schema.org/Person">
            <a itemprop="url" href='../../u/thewizard99.html'><span itemprop='name'>thewizard99</span></a>
            
          </span>

          <link itemprop="mainEntityOfPage" href="10393.html">


          <span class="crawler-post-infos">
              <meta itemprop='datePublished' content='2015-02-19T17:15:32Z'>
              <time itemprop='dateModified' datetime='2020-08-11T11:14:46Z' class='post-time'>
                August 11, 2020, 11:14am
              </time>
          <span itemprop='position'>#2505</span>
          </span>
        </div>
        <div class='post' itemprop='articleBody'>
          <p>also as a side note, withing the <a href="http://kxbm.net/" rel="nofollow noopener">KXBM.net</a>, looking at the resources for the Scripts, <a href="https://alteredqualia.com/" data-bbcode="true" rel="nofollow noopener">https://alteredqualia.com</a> is mentioned, on there there is a Molecule Structure 3D render which looks a hell of a lot like the one thats on the Calanders in BM.</p>
        </div>

        <meta itemprop='headline' content='[ARG] The Pizza Code Mystery'>

        <div itemprop="interactionStatistic" itemscope itemtype="http://schema.org/InteractionCounter">
           <meta itemprop="interactionType" content="http://schema.org/LikeAction"/>
           <meta itemprop="userInteractionCount" content="0" />
           <span class='post-likes'></span>
         </div>

         <div itemprop="interactionStatistic" itemscope itemtype="http://schema.org/InteractionCounter">
            <meta itemprop="interactionType" content="http://schema.org/CommentAction"/>
            <meta itemprop="userInteractionCount" content="0" />
          </div>

      </div>
      <div itemscope itemtype='http://schema.org/DiscussionForumPosting' class='topic-body crawler-post'>
        <div class='crawler-post-meta'>
          <div itemprop='publisher' itemscope itemtype="http://schema.org/Organization">
            <meta itemprop='name' content='Pixelblast Media LLC'>
              <div itemprop='logo' itemscope itemtype="http://schema.org/ImageObject">
                <meta itemprop='url' content='../../uploads/default/original/2X/b/b4f2bc6e5e04e842eae8b788313c606f873a973b.png'>
              </div>
          </div>
          <span class="creator" itemprop="author" itemscope itemtype="http://schema.org/Person">
            <a itemprop="url" href='../../u/Sherlock_killer.html'><span itemprop='name'>Sherlock_killer</span></a>
            
          </span>

          <link itemprop="mainEntityOfPage" href="10393.html">


          <span class="crawler-post-infos">
              <meta itemprop='datePublished' content='2015-02-19T17:31:35Z'>
              <time itemprop='dateModified' datetime='2018-11-25T04:23:11Z' class='post-time'>
                November 25, 2018,  4:23am
              </time>
          <span itemprop='position'>#2506</span>
          </span>
        </div>
        <div class='post' itemprop='articleBody'>
          <p>There are few lines in there that have the word Rocket-launcher in there (The article site). could it mean something?</p>
<p>Also those picture about stuff that are being sold in the site, one of them has no link wich is the radio transmitter with weir name.</p>
        </div>

        <meta itemprop='headline' content='[ARG] The Pizza Code Mystery'>

        <div itemprop="interactionStatistic" itemscope itemtype="http://schema.org/InteractionCounter">
           <meta itemprop="interactionType" content="http://schema.org/LikeAction"/>
           <meta itemprop="userInteractionCount" content="0" />
           <span class='post-likes'></span>
         </div>

         <div itemprop="interactionStatistic" itemscope itemtype="http://schema.org/InteractionCounter">
            <meta itemprop="interactionType" content="http://schema.org/CommentAction"/>
            <meta itemprop="userInteractionCount" content="0" />
          </div>

      </div>
      <div itemscope itemtype='http://schema.org/DiscussionForumPosting' class='topic-body crawler-post'>
        <div class='crawler-post-meta'>
          <div itemprop='publisher' itemscope itemtype="http://schema.org/Organization">
            <meta itemprop='name' content='Pixelblast Media LLC'>
              <div itemprop='logo' itemscope itemtype="http://schema.org/ImageObject">
                <meta itemprop='url' content='../../uploads/default/original/2X/b/b4f2bc6e5e04e842eae8b788313c606f873a973b.png'>
              </div>
          </div>
          <span class="creator" itemprop="author" itemscope itemtype="http://schema.org/Person">
            <a itemprop="url" href='../../u/thewizard99.html'><span itemprop='name'>thewizard99</span></a>
            
          </span>

          <link itemprop="mainEntityOfPage" href="10393.html">


          <span class="crawler-post-infos">
              <meta itemprop='datePublished' content='2015-02-19T18:40:25Z'>
              <time itemprop='dateModified' datetime='2020-08-11T11:14:46Z' class='post-time'>
                August 11, 2020, 11:14am
              </time>
          <span itemprop='position'>#2507</span>
          </span>
        </div>
        <div class='post' itemprop='articleBody'>
          <aside class="quote no-group" data-username="Sherlock_killer">
<div class="title">
<div class="quote-controls"></div>
<img alt="" width="20" height="20" src="../../letter_avatar_proxy/v4/letter/s/a87d85/40.png" class="avatar"> Sherlock_killer:</div>
<blockquote>
<p>There are few lines in there that have the word Rocket-launcher in there (The article site). could it mean something?</p>
<p>Also those picture about stuff that are being sold in the site, one of them has no link wich is the radio transmitter with weir name.</p>
</blockquote>
</aside>
<p>the <a href="https://www.kxbm.net/article/?view=all-clear-given-for-black-mesa-evacuation-zone-10360" data-bbcode="true" rel="nofollow noopener">https://www.kxbm.net/article/?view=all-clear-given-for-black-mesa-evacuation-zone-10360</a> website has that on which you stated, also on the <a href="http://localdesrtsingles.com/" rel="nofollow noopener">localdesrtsingles.com</a> website in the code has something about rocket launches in there as well.</p>
        </div>

        <meta itemprop='headline' content='[ARG] The Pizza Code Mystery'>

        <div itemprop="interactionStatistic" itemscope itemtype="http://schema.org/InteractionCounter">
           <meta itemprop="interactionType" content="http://schema.org/LikeAction"/>
           <meta itemprop="userInteractionCount" content="0" />
           <span class='post-likes'></span>
         </div>

         <div itemprop="interactionStatistic" itemscope itemtype="http://schema.org/InteractionCounter">
            <meta itemprop="interactionType" content="http://schema.org/CommentAction"/>
            <meta itemprop="userInteractionCount" content="0" />
          </div>

      </div>
      <div itemscope itemtype='http://schema.org/DiscussionForumPosting' class='topic-body crawler-post'>
        <div class='crawler-post-meta'>
          <div itemprop='publisher' itemscope itemtype="http://schema.org/Organization">
            <meta itemprop='name' content='Pixelblast Media LLC'>
              <div itemprop='logo' itemscope itemtype="http://schema.org/ImageObject">
                <meta itemprop='url' content='../../uploads/default/original/2X/b/b4f2bc6e5e04e842eae8b788313c606f873a973b.png'>
              </div>
          </div>
          <span class="creator" itemprop="author" itemscope itemtype="http://schema.org/Person">
            <a itemprop="url" href='../../u/Jacky.html'><span itemprop='name'>Jacky</span></a>
            
          </span>

          <link itemprop="mainEntityOfPage" href="10393.html">


          <span class="crawler-post-infos">
              <meta itemprop='datePublished' content='2015-02-19T18:51:28Z'>
              <time itemprop='dateModified' datetime='2020-08-11T11:14:46Z' class='post-time'>
                August 11, 2020, 11:14am
              </time>
          <span itemprop='position'>#2508</span>
          </span>
        </div>
        <div class='post' itemprop='articleBody'>
          <p>When you click on Thomas Lee on KXBM, you go to this website: <a href="https://localdesertsingles.com/#203428/thomas-lee" data-bbcode="true" rel="nofollow noopener">https://localdesertsingles.com/#203428/thomas-lee</a>, and if check out source code, there is a link for heart, but it is quite long not going to post it here, check it out. Does that mean anything?</p>
<p>Also, I found this, and it looks awfully familiar (can’t remember where I found it though) SXQncyBub3Qgb3VyIGZhdWx0Lg==</p>
<p>EDIT: I found it in picture URL (picture right above text)<br>
MORE EDIT: It is Base 64, and when decoded it says: “It’s not our fault.”</p>
        </div>

        <meta itemprop='headline' content='[ARG] The Pizza Code Mystery'>

        <div itemprop="interactionStatistic" itemscope itemtype="http://schema.org/InteractionCounter">
           <meta itemprop="interactionType" content="http://schema.org/LikeAction"/>
           <meta itemprop="userInteractionCount" content="0" />
           <span class='post-likes'></span>
         </div>

         <div itemprop="interactionStatistic" itemscope itemtype="http://schema.org/InteractionCounter">
            <meta itemprop="interactionType" content="http://schema.org/CommentAction"/>
            <meta itemprop="userInteractionCount" content="0" />
          </div>

      </div>
      <div itemscope itemtype='http://schema.org/DiscussionForumPosting' class='topic-body crawler-post'>
        <div class='crawler-post-meta'>
          <div itemprop='publisher' itemscope itemtype="http://schema.org/Organization">
            <meta itemprop='name' content='Pixelblast Media LLC'>
              <div itemprop='logo' itemscope itemtype="http://schema.org/ImageObject">
                <meta itemprop='url' content='../../uploads/default/original/2X/b/b4f2bc6e5e04e842eae8b788313c606f873a973b.png'>
              </div>
          </div>
          <span class="creator" itemprop="author" itemscope itemtype="http://schema.org/Person">
            <a itemprop="url" href='../../u/Shadowhand.html'><span itemprop='name'>Shadowhand</span></a>
            
          </span>

          <link itemprop="mainEntityOfPage" href="10393.html">


          <span class="crawler-post-infos">
              <meta itemprop='datePublished' content='2015-02-19T19:01:53Z'>
              <time itemprop='dateModified' datetime='2020-08-11T11:14:47Z' class='post-time'>
                August 11, 2020, 11:14am
              </time>
          <span itemprop='position'>#2509</span>
          </span>
        </div>
        <div class='post' itemprop='articleBody'>
          <p>I went digging around the sites, and here is what I found:</p>
<p><a href="https://www.kxbm.net/article/" data-bbcode="true" rel="nofollow noopener">KXBM.net/article</a> :<br>
There’s literally just this page, it’s called “index.html”, not even php, so it’d not dynamic. Literally anything after “?” is just fluff.<br>
There’s an /assets/ under /article/, but it throws out forbidden error. Fine, okay!</p>
<p>But here’s the kicker: Literally every image on the page (and one script tag) has their names in Base64 text. Below is the every Base64 line on the page:</p>
<p>[spoiler]1. SSBzdXNwZWN0ZWQgdGhpcyB3b3VsZCBoYXBwZW4sIGJ1dCB0aGUgYWRtaW5pc3RyYXRvciBqdXN0IHdvdWxkIG5vdCBsaXN0ZW4u</p>
<ol>
<li>SXQncyBub3Qgb3VyIGZhdWx0Lg==</li>
<li>RmF0IGxvdCBvZiBnb29kIHRoYXQgUGguRCBkb2VzIG1lIG5vdw==</li>
<li>SSd2ZSBiZWVuIHdhaXRpbmcgaGVyZSBmb3IgYWdlcywgaG9waW5nIHNvbWVvbmUgd291bGQgY29tZSBhbG9uZyE=</li>
<li>R2V0IHVzIG91dCBvZiBoZXJlIGJlZm9yZSB0aG9zZSBtaWxpdGFyeSBkcm9uZXMgZmluZCBvdXQgd2hlcmUgd2UncmUgaGlkaW5n</li>
<li>SWYgeW91IGxldCB1cyBhbGwgZGllLCBGcmVlbWFuLCB5b3UnbGwgbmV2ZXIgZ2V0IG91dCBvZiBoZXJlLg==</li>
<li>SWYgeW91IGludGVuZCB0byBnbyBvbiwgdGhlbiwgSSBiZWcgb2YgeW91LCBwcm9jZWVkIHdpdGggZXh0cmVtZSBjYXV0aW9uLg==</li>
<li>VGhlIGRpbWVuc2lvbmFsIGJyZWFjaCBpcyBkZWZpbml0ZWx5IHRyYW5zbWl0dGluZyBvcmdhbmljIG1hdHRlci4=</li>
<li>SSBjYW4gc2VlIHlvdSBhbHJlYWR5IGtub3cgYSBncmVhdCBkZWFsIG1vcmUgdGhhbiBhbnkgb25lIG1hbiBpcyBzdXBwb3NlZCB0by4=</li>
<li>VGhlIHNjaWVuY2UgdGVhbSBoYXMgYmVlbiB0cmFja2luZyB5b3VyIHByb2dyZXNzIHdpdGggdGhlIEJsYWNrIE1lc2Egc2VjdXJpdHkgc3lzdGVtLiBVbmZvcnR1bmF0ZWx5LCBzbyBpcyB0aGUgbWlsaXRhcnku</li>
<li>V2l0aCBteSBicmFpbnMgYW5kIHlvdXIgYnJhd24sIHdlJ2QgbWFrZSBhbiBleGNlbGxlbnQgdGVhbS4= <span class="bbcode-i">(Script file’s name)</span>
</li>
<li>SXQgY2FuJ3QgZ2V0IGFueSB3b3JzZSB0aGFuIHRoaXMu <span class="bbcode-i">(In CSS)</span>
</li>
<li>VGhlIGFsaWVuIHNwZWNpZXMgY2FuJ3QgcG9zc2libHkgYWxsIGJlIGhvc3RpbGUsIGNhbiB0aGV5Pw== <span class="bbcode-i">(In CSS)</span>
</li>
<li>V2h5IGRpZG4ndCB0aGV5IGxpc3Rlbj8= <span class="bbcode-i">(In CSS)</span>
</li>
<li>SSBuZXZlciBzdXNwZWN0ZWQgc3VjaCB0aGluZ3MgY291bGQgYmUuLi4= <span class="bbcode-i">(Turned on radio, with morse code)</span><br>
[/spoiler]</li>
</ol>
<p>And here’s what they mean:</p>
<p>[spoiler]1. I suspected this would happen, but the administrator just would not listen.</p>
<ol>
<li>It’s not our fault.</li>
<li>Fat lot of good that Ph.D does me now</li>
<li>I’ve been waiting here for ages, hoping someone would come along!</li>
<li>Get us out of here before those military drones find out where we’re hiding</li>
<li>If you let us all die, Freeman, you’ll never get out of here.</li>
<li>If you intend to go on, then, I beg of you, proceed with extreme caution.</li>
<li>The dimensional breach is definitely transmitting organic matter.</li>
<li>I can see you already know a great deal more than any one man is supposed to.</li>
<li>The science team has been tracking your progress with the Black Mesa security system. Unfortunately, so is the military.</li>
<li>With my brains and your brawn, we’d make an excellent team. <span class="bbcode-i">(Script file’s name)</span>
</li>
<li>It can’t get any worse than this. <span class="bbcode-i">(In CSS)</span>
</li>
<li>The alien species can’t possibly all be hostile, can they? <span class="bbcode-i">(In CSS)</span>
</li>
<li>Why didn’t they listen? <span class="bbcode-i">(In CSS)</span>
</li>
<li>I never suspected such things could be… <span class="bbcode-i">(Turned on radio, with morse code)</span><br>
[/spoiler]</li>
</ol>
<p>When the page is first loaded, browser tries to load a file (<a href="https://www.kxbm.net/article/assets/RGllLi4ueW91IGFsbCBkaWUuLi55b3UgYWxsIGRpZS4uLg==" data-bbcode="true" rel="nofollow noopener">link</a>), file name is in, again Base64.<br>
RGllLi4ueW91IGFsbCBkaWUuLi55b3UgYWxsIGRpZS4uLg==</p>
<p>Which translates to:<br>
“<span class="bbcode-u"><span class="bbcode-i">Die…you all die…you all die…</span></span>”</p>
<p>Now, the file itself, it’s very interesting!<br>
It looks like it’s just gibberish, but there are bits you can read, and simple googling sent me on LibAV (for audio video encoding), and FFMpeg, which’s also used for the same thing. So I tried creating a blank mp4 file, and put the file contents in it but that didn’t work.<br>
<span class="bbcode-s"><span class="bbcode-u">So if you’ve got time/knowledge to figure out what it is, let me know!</span></span><br>
See spoiler: [spoiler]I figured out what’s that unknown file (that’s supposed to be an MP4<br>
file) is. Turns out, it really is an MP4 file! I was just being an idiot<br>
by copy-pasting the contents, rather than just save the file as MP4<br>
directly from the browser.</p>
<p>Here’s the mediainfo output for it:</p>
<div class="spoiler">
<p>Complete name                            : C:\Users&lt;snip&gt;\Desktop\RGllLi4ueW91IGFsbCBkaWUuLi55b3UgYWxsIGRpZS4uLg==.mp4<br>
Format                                   : MPEG-4<br>
Format profile                           : Base Media<br>
Codec ID                                 : isom<br>
File size                                : 147 KiB<br>
Duration                                 : 9s 211ms<br>
Overall bit rate mode                    : Constant<br>
Overall bit rate                         : 130 Kbps<br>
Writing application                      : Lavf55.19.104</p>
<p>Audio<br>
ID                                       : 1<br>
Format                                   : AAC<br>
Format/Info                              : Advanced Audio Codec<br>
Format profile                           : LC<br>
Codec ID                                 : 40<br>
Duration                                 : 9s 211ms<br>
Duration_LastFrame                       : -8ms<br>
Bit rate mode                            : Constant<br>
Bit rate                                 : 128 Kbps<br>
Channel(s)                               : 2 channels<br>
Channel(s)_Original                      : 1 channel<br>
Channel positions                        : Front: C<br>
Sampling rate                            : 44.1 KHz<br>
Compression mode                         : Lossy<br>
Stream size                              : 144 KiB (98%)</p>
</div>
<p>And it’s nothing special. It’s just the static noise from the top directory <a href="https://kxbm.net/" data-bbcode="true" rel="nofollow noopener">kxbm.net</a>.[/spoiler]</p>
<p>Three things are left on this page:</p>
<p><span class="bbcode-i">1) </span>Headcrab ASCII art in console.</p>
<p><span class="bbcode-i">2) </span>Clicking any of the top links (menu, set your weather, etc) sends you to <a href="https://kxbm.net/" data-bbcode="true" rel="nofollow noopener">base domain</a>, which literally has 10 JavaScript files, 1 jpg (same file from <a href="http://bmfr.us/" rel="nofollow noopener">bmfr.us</a> EAS image), a “thumbs.db” file (which shows the page has been accessed locally on a Windows computer), and one mp4 file.</p>
<p>Now the main thing on the page is the mp4 file. It’s called <span class="bbcode-u">background.mp4</span> and it’s 1 minute long. The TV static and deformation effect is dynamically added on the page with JavaScript.</p>
<p>There’s nothing else to this file, or the page, other than the Gman ASCII art in the console.</p>
<p><span class="bbcode-i">3) </span>Clicking Thomas’ name sends you to <a href="https://localdesertsingles.com/#203428/thomas-lee" data-bbcode="true" rel="nofollow noopener">localdesertsingles.com</a>, which says the server is overloaded, but once again, it’s just another index.html file, which means it’s not dynamic.<br>
What’s weird about this page is the console output, which shows Nihilant, and prints one line:<br>
“<span class="bbcode-u"><span class="bbcode-i">Alone…aren’t you alone…</span></span>”<br>
And prints another line every 2000ms (2 seconds) forever:<br>
“<span class="bbcode-u"><span class="bbcode-i">…aren’t you alone…</span></span>”</p>
<p>The script that does this is written in-line, and is encoded. I decoded it and it has nothing of value inside.</p>
<p>And that’s all. The only thing I couldn’t crack is the file I mentioned earlier, one that browser tries to load but fails.</p>
<p>EDIT: I added 3 more Base64 encoded text I found in CSS files.</p>
<p>EDIT2:  Added 1 more Base64 encoded text, that gets enabled on the page after you turn on the ham radio.</p>
<p>Two more  things on the article page:<br>
You can click the button on the radio to turn it on, and it will relay a morse code (found by <a href="https://forums.blackmesasource.com/index.php/Thread/13735-ARG-The-Pizza-Code-Mystery/?postID=598975#post598975" data-bbcode="true" rel="nofollow noopener">CPU</a>), which translates to</p>
<aside class="quote no-group">
<blockquote>
<p>   DE AI5BM<br>
AI5BM AI5BM BLACK MESA RESEARCH FACILITY BIODOME LABS. TRAPPED, NEED<br>
RESCUE. EVAC ZONE NOT SAFE. MILITARY HOSTILE  K</p>
</blockquote>
</aside>
<p>And you can click “Contact Us” at the footer, which takes you to <a href="https://steampowered.com/" data-bbcode="true" rel="nofollow noopener">https://steampowered.com/</a>.</p>
        </div>

        <meta itemprop='headline' content='[ARG] The Pizza Code Mystery'>

        <div itemprop="interactionStatistic" itemscope itemtype="http://schema.org/InteractionCounter">
           <meta itemprop="interactionType" content="http://schema.org/LikeAction"/>
           <meta itemprop="userInteractionCount" content="0" />
           <span class='post-likes'></span>
         </div>

         <div itemprop="interactionStatistic" itemscope itemtype="http://schema.org/InteractionCounter">
            <meta itemprop="interactionType" content="http://schema.org/CommentAction"/>
            <meta itemprop="userInteractionCount" content="0" />
          </div>

      </div>
      <div itemscope itemtype='http://schema.org/DiscussionForumPosting' class='topic-body crawler-post'>
        <div class='crawler-post-meta'>
          <div itemprop='publisher' itemscope itemtype="http://schema.org/Organization">
            <meta itemprop='name' content='Pixelblast Media LLC'>
              <div itemprop='logo' itemscope itemtype="http://schema.org/ImageObject">
                <meta itemprop='url' content='../../uploads/default/original/2X/b/b4f2bc6e5e04e842eae8b788313c606f873a973b.png'>
              </div>
          </div>
          <span class="creator" itemprop="author" itemscope itemtype="http://schema.org/Person">
            <a itemprop="url" href='../../u/Jacky.html'><span itemprop='name'>Jacky</span></a>
            
          </span>

          <link itemprop="mainEntityOfPage" href="10393.html">


          <span class="crawler-post-infos">
              <meta itemprop='datePublished' content='2015-02-19T19:15:59Z'>
              <time itemprop='dateModified' datetime='2020-08-11T11:14:47Z' class='post-time'>
                August 11, 2020, 11:14am
              </time>
          <span itemprop='position'>#2510</span>
          </span>
        </div>
        <div class='post' itemprop='articleBody'>
          <p>All of those picture on webiste (<a href="https://www.kxbm.net/article/?10360/all-clear-given-for-black-mesa-evacuation-zone" data-bbcode="true" rel="nofollow noopener">https://www.kxbm.net/article/?10360/all-clear-given-for-black-mesa-evacuation-zone</a>) has some kind of comment in base 64, so I decoded all of 'em  (in order I think) and here what it says:</p>
<p>Get us out of here before those military drones find out where we’re hiding<br>
Fat lot of good that Ph.D does me now<br>
I can see you already know a great deal more than any one man is supposed to.<br>
I suspected this would happen, but the administrator just would not listen.<br>
I’ve been waiting here for ages, hoping someone would come along!<br>
If you intend to go on, then, I beg of you, proceed with extreme caution.<br>
If you let us all die, Freeman, you’ll never get out of here.<br>
It can’t get any worse than this.<br>
It’s not our fault.<br>
Why didn’t they listen?<br>
The alien species can’t possibly all be hostile, can they?<br>
The dimensional breach is definitely transmitting organic matter.<br>
The science team has been tracking your progress with the Black Mesa security system. Unfortunately, so is the military.</p>
        </div>

        <meta itemprop='headline' content='[ARG] The Pizza Code Mystery'>

        <div itemprop="interactionStatistic" itemscope itemtype="http://schema.org/InteractionCounter">
           <meta itemprop="interactionType" content="http://schema.org/LikeAction"/>
           <meta itemprop="userInteractionCount" content="0" />
           <span class='post-likes'></span>
         </div>

         <div itemprop="interactionStatistic" itemscope itemtype="http://schema.org/InteractionCounter">
            <meta itemprop="interactionType" content="http://schema.org/CommentAction"/>
            <meta itemprop="userInteractionCount" content="0" />
          </div>

      </div>
      <div itemscope itemtype='http://schema.org/DiscussionForumPosting' class='topic-body crawler-post'>
        <div class='crawler-post-meta'>
          <div itemprop='publisher' itemscope itemtype="http://schema.org/Organization">
            <meta itemprop='name' content='Pixelblast Media LLC'>
              <div itemprop='logo' itemscope itemtype="http://schema.org/ImageObject">
                <meta itemprop='url' content='../../uploads/default/original/2X/b/b4f2bc6e5e04e842eae8b788313c606f873a973b.png'>
              </div>
          </div>
          <span class="creator" itemprop="author" itemscope itemtype="http://schema.org/Person">
            <a itemprop="url" href='../../u/thewizard99.html'><span itemprop='name'>thewizard99</span></a>
            
          </span>

          <link itemprop="mainEntityOfPage" href="10393.html">


          <span class="crawler-post-infos">
              <meta itemprop='datePublished' content='2015-02-19T19:19:50Z'>
              <time itemprop='dateModified' datetime='2020-08-11T11:14:48Z' class='post-time'>
                August 11, 2020, 11:14am
              </time>
          <span itemprop='position'>#2511</span>
          </span>
        </div>
        <div class='post' itemprop='articleBody'>
          <aside class="quote no-group" data-username="Jacky">
<div class="title">
<div class="quote-controls"></div>
<img alt="" width="20" height="20" src="../../letter_avatar_proxy/v4/letter/j/ce73a5/40.png" class="avatar"> Jacky:</div>
<blockquote>
<p>All of those picture on webiste (<a href="https://www.kxbm.net/article/?10360/all-clear-given-for-black-mesa-evacuation-zone" data-bbcode="true" rel="nofollow noopener">https://www.kxbm.net/article/?10360/all-clear-given-for-black-mesa-evacuation-zone</a>) has some kind of comment in base 64, so I decoded all of 'em  (in order I think) and here what it says:</p>
<p>Get us out of here before those military drones find out where we’re hiding<br>
Fat lot of good that Ph.D does me now<br>
I can see you already know a great deal more than any one man is supposed to.<br>
I suspected this would happen, but the administrator just would not listen.<br>
I’ve been waiting here for ages, hoping someone would come along!<br>
If you intend to go on, then, I beg of you, proceed with extreme caution.<br>
If you let us all die, Freeman, you’ll never get out of here.<br>
It can’t get any worse than this.<br>
It’s not our fault.<br>
Why didn’t they listen?<br>
The alien species can’t possibly all be hostile, can they?<br>
The dimensional breach is definitely transmitting organic matter.<br>
The science team has been tracking your progress with the Black Mesa security system. Unfortunately, so is the military.</p>
</blockquote>
</aside>
<p>WHERE DID YOU FIND THESE. DIRECT LINKS PLEASE.</p>
        </div>

        <meta itemprop='headline' content='[ARG] The Pizza Code Mystery'>

        <div itemprop="interactionStatistic" itemscope itemtype="http://schema.org/InteractionCounter">
           <meta itemprop="interactionType" content="http://schema.org/LikeAction"/>
           <meta itemprop="userInteractionCount" content="0" />
           <span class='post-likes'></span>
         </div>

         <div itemprop="interactionStatistic" itemscope itemtype="http://schema.org/InteractionCounter">
            <meta itemprop="interactionType" content="http://schema.org/CommentAction"/>
            <meta itemprop="userInteractionCount" content="0" />
          </div>

      </div>
      <div itemscope itemtype='http://schema.org/DiscussionForumPosting' class='topic-body crawler-post'>
        <div class='crawler-post-meta'>
          <div itemprop='publisher' itemscope itemtype="http://schema.org/Organization">
            <meta itemprop='name' content='Pixelblast Media LLC'>
              <div itemprop='logo' itemscope itemtype="http://schema.org/ImageObject">
                <meta itemprop='url' content='../../uploads/default/original/2X/b/b4f2bc6e5e04e842eae8b788313c606f873a973b.png'>
              </div>
          </div>
          <span class="creator" itemprop="author" itemscope itemtype="http://schema.org/Person">
            <a itemprop="url" href='../../u/thewizard99.html'><span itemprop='name'>thewizard99</span></a>
            
          </span>

          <link itemprop="mainEntityOfPage" href="10393.html">


          <span class="crawler-post-infos">
              <meta itemprop='datePublished' content='2015-02-19T19:23:06Z'>
              <time itemprop='dateModified' datetime='2020-08-11T11:14:48Z' class='post-time'>
                August 11, 2020, 11:14am
              </time>
          <span itemprop='position'>#2512</span>
          </span>
        </div>
        <div class='post' itemprop='articleBody'>
          <p>Oh thats intresting, it seems that its quotes from scientists from Black Mesa. the Administrator one stands out, mainly due to the fact that Bottomley was the Head Admin in QE.</p>
<p>EDIT : Website is now down for <a href="https://www.kxbm.net/article/?10360/all-clear-given-for-black-mesa-evacuation-zone" data-bbcode="true" rel="nofollow noopener">https://www.kxbm.net/article/?10360/all-clear-given-for-black-mesa-evacuation-zone</a></p>
        </div>

        <meta itemprop='headline' content='[ARG] The Pizza Code Mystery'>

        <div itemprop="interactionStatistic" itemscope itemtype="http://schema.org/InteractionCounter">
           <meta itemprop="interactionType" content="http://schema.org/LikeAction"/>
           <meta itemprop="userInteractionCount" content="0" />
           <span class='post-likes'></span>
         </div>

         <div itemprop="interactionStatistic" itemscope itemtype="http://schema.org/InteractionCounter">
            <meta itemprop="interactionType" content="http://schema.org/CommentAction"/>
            <meta itemprop="userInteractionCount" content="0" />
          </div>

      </div>
      <div itemscope itemtype='http://schema.org/DiscussionForumPosting' class='topic-body crawler-post'>
        <div class='crawler-post-meta'>
          <div itemprop='publisher' itemscope itemtype="http://schema.org/Organization">
            <meta itemprop='name' content='Pixelblast Media LLC'>
              <div itemprop='logo' itemscope itemtype="http://schema.org/ImageObject">
                <meta itemprop='url' content='../../uploads/default/original/2X/b/b4f2bc6e5e04e842eae8b788313c606f873a973b.png'>
              </div>
          </div>
          <span class="creator" itemprop="author" itemscope itemtype="http://schema.org/Person">
            <a itemprop="url" href='../../u/Jacky.html'><span itemprop='name'>Jacky</span></a>
            
          </span>

          <link itemprop="mainEntityOfPage" href="10393.html">


          <span class="crawler-post-infos">
              <meta itemprop='datePublished' content='2015-02-19T19:26:15Z'>
              <time itemprop='dateModified' datetime='2020-08-11T11:14:48Z' class='post-time'>
                August 11, 2020, 11:14am
              </time>
          <span itemprop='position'>#2513</span>
          </span>
        </div>
        <div class='post' itemprop='articleBody'>
          <p>I can’t link that I think, i will try to explain.<br>
When you go to that site (<a href="https://www.kxbm.net/article/?10360/all-clear-given-for-black-mesa-evacuation-zone" data-bbcode="true" rel="nofollow noopener">https://www.kxbm.net/article/?10360/all-clear-given-for-black-mesa-evacuation-zone</a>) inspect element and go resources.<br>
Then you want this : <a href="https://imgur.com/0rZhVb8" data-bbcode="true" rel="nofollow noopener">https://imgur.com/0rZhVb8</a><br>
ALL of those pictures have “comment” in base 64.</p>
        </div>

        <meta itemprop='headline' content='[ARG] The Pizza Code Mystery'>

        <div itemprop="interactionStatistic" itemscope itemtype="http://schema.org/InteractionCounter">
           <meta itemprop="interactionType" content="http://schema.org/LikeAction"/>
           <meta itemprop="userInteractionCount" content="0" />
           <span class='post-likes'></span>
         </div>

         <div itemprop="interactionStatistic" itemscope itemtype="http://schema.org/InteractionCounter">
            <meta itemprop="interactionType" content="http://schema.org/CommentAction"/>
            <meta itemprop="userInteractionCount" content="0" />
          </div>

      </div>
      <div itemscope itemtype='http://schema.org/DiscussionForumPosting' class='topic-body crawler-post'>
        <div class='crawler-post-meta'>
          <div itemprop='publisher' itemscope itemtype="http://schema.org/Organization">
            <meta itemprop='name' content='Pixelblast Media LLC'>
              <div itemprop='logo' itemscope itemtype="http://schema.org/ImageObject">
                <meta itemprop='url' content='../../uploads/default/original/2X/b/b4f2bc6e5e04e842eae8b788313c606f873a973b.png'>
              </div>
          </div>
          <span class="creator" itemprop="author" itemscope itemtype="http://schema.org/Person">
            <a itemprop="url" href='../../u/CPU.html'><span itemprop='name'>CPU</span></a>
            
          </span>

          <link itemprop="mainEntityOfPage" href="10393.html">


          <span class="crawler-post-infos">
              <meta itemprop='datePublished' content='2015-02-19T20:15:49Z'>
              <time itemprop='dateModified' datetime='2018-11-25T04:23:12Z' class='post-time'>
                November 25, 2018,  4:23am
              </time>
          <span itemprop='position'>#2514</span>
          </span>
        </div>
        <div class='post' itemprop='articleBody'>
          <p>If you right click on the image of Thomas Lee and select “save as” it to your desktop. It saves as a txt file<br>
In this case, it saves as R2V0IHVzIG91dCBvZiBoZXJlIGJlZm9yZSB0aG9zZSBtaWxpdGFyeSBkcm9uZXMgZmluZCBvdXQgd2hlcmUgd2UncmUgaGlkaW5n.txt</p>
<p>Then, go to <a href="https://www.base64decode.org/" data-bbcode="true">https://www.base64decode.org/</a> and enter the text file, minus the “.txt” at the end and it decrypts to <span class="bbcode-i">Get us out of here before those military drones find out where we’re hiding</span></p>
        </div>

        <meta itemprop='headline' content='[ARG] The Pizza Code Mystery'>

        <div itemprop="interactionStatistic" itemscope itemtype="http://schema.org/InteractionCounter">
           <meta itemprop="interactionType" content="http://schema.org/LikeAction"/>
           <meta itemprop="userInteractionCount" content="0" />
           <span class='post-likes'></span>
         </div>

         <div itemprop="interactionStatistic" itemscope itemtype="http://schema.org/InteractionCounter">
            <meta itemprop="interactionType" content="http://schema.org/CommentAction"/>
            <meta itemprop="userInteractionCount" content="0" />
          </div>

      </div>
      <div itemscope itemtype='http://schema.org/DiscussionForumPosting' class='topic-body crawler-post'>
        <div class='crawler-post-meta'>
          <div itemprop='publisher' itemscope itemtype="http://schema.org/Organization">
            <meta itemprop='name' content='Pixelblast Media LLC'>
              <div itemprop='logo' itemscope itemtype="http://schema.org/ImageObject">
                <meta itemprop='url' content='../../uploads/default/original/2X/b/b4f2bc6e5e04e842eae8b788313c606f873a973b.png'>
              </div>
          </div>
          <span class="creator" itemprop="author" itemscope itemtype="http://schema.org/Person">
            <a itemprop="url" href='../../u/Shadowhand.html'><span itemprop='name'>Shadowhand</span></a>
            
          </span>

          <link itemprop="mainEntityOfPage" href="10393.html">


          <span class="crawler-post-infos">
              <meta itemprop='datePublished' content='2015-02-19T20:20:19Z'>
              <time itemprop='dateModified' datetime='2020-08-11T11:14:49Z' class='post-time'>
                August 11, 2020, 11:14am
              </time>
          <span itemprop='position'>#2515</span>
          </span>
        </div>
        <div class='post' itemprop='articleBody'>
          <p>Found three more Base64 file names, hidden in CSS codes. Quite clever I must admit.</p>
<p>[spoiler]    1. SXQgY2FuJ3QgZ2V0IGFueSB3b3JzZSB0aGFuIHRoaXMu</p>
<ol>
<li>VGhlIGFsaWVuIHNwZWNpZXMgY2FuJ3QgcG9zc2libHkgYWxsIGJlIGhvc3RpbGUsIGNhbiB0aGV5Pw==</li>
<li>V2h5IGRpZG4ndCB0aGV5IGxpc3Rlbj8=<br>
[/spoiler]</li>
</ol>
<p>They translate to:</p>
<p>[spoiler]1. “It can’t get any worse than this.”</p>
<ol>
<li>“The alien species can’t possibly all be hostile, can they?”</li>
<li>“Why didn’t they listen?”<br>
[/spoiler]</li>
</ol>
<p>EDIT: See my original post <a href="https://forums.blackmesasource.com/index.php/Thread/13735-ARG-The-Pizza-Code-Mystery/?postID=598857#post598857" data-bbcode="true" rel="nofollow noopener">here</a>.</p>
        </div>

        <meta itemprop='headline' content='[ARG] The Pizza Code Mystery'>

        <div itemprop="interactionStatistic" itemscope itemtype="http://schema.org/InteractionCounter">
           <meta itemprop="interactionType" content="http://schema.org/LikeAction"/>
           <meta itemprop="userInteractionCount" content="0" />
           <span class='post-likes'></span>
         </div>

         <div itemprop="interactionStatistic" itemscope itemtype="http://schema.org/InteractionCounter">
            <meta itemprop="interactionType" content="http://schema.org/CommentAction"/>
            <meta itemprop="userInteractionCount" content="0" />
          </div>

      </div>
      <div itemscope itemtype='http://schema.org/DiscussionForumPosting' class='topic-body crawler-post'>
        <div class='crawler-post-meta'>
          <div itemprop='publisher' itemscope itemtype="http://schema.org/Organization">
            <meta itemprop='name' content='Pixelblast Media LLC'>
              <div itemprop='logo' itemscope itemtype="http://schema.org/ImageObject">
                <meta itemprop='url' content='../../uploads/default/original/2X/b/b4f2bc6e5e04e842eae8b788313c606f873a973b.png'>
              </div>
          </div>
          <span class="creator" itemprop="author" itemscope itemtype="http://schema.org/Person">
            <a itemprop="url" href='../../u/Jacky.html'><span itemprop='name'>Jacky</span></a>
            
          </span>

          <link itemprop="mainEntityOfPage" href="10393.html">


          <span class="crawler-post-infos">
              <meta itemprop='datePublished' content='2015-02-19T20:23:45Z'>
              <time itemprop='dateModified' datetime='2020-08-11T11:14:49Z' class='post-time'>
                August 11, 2020, 11:14am
              </time>
          <span itemprop='position'>#2516</span>
          </span>
        </div>
        <div class='post' itemprop='articleBody'>
          <aside class="quote no-group" data-username="Shadowhand">
<div class="title">
<div class="quote-controls"></div>
<img alt="" width="20" height="20" src="../../user_avatar/leakfree.org/shadowhand/40/5934_2.png" class="avatar"> Shadowhand:</div>
<blockquote>
<p>Found three more Base64 file names, hidden in CSS codes. Quite clever I must admit.</p>
<p>[spoiler]    1. SXQgY2FuJ3QgZ2V0IGFueSB3b3JzZSB0aGFuIHRoaXMu</p>
<ol>
<li>VGhlIGFsaWVuIHNwZWNpZXMgY2FuJ3QgcG9zc2libHkgYWxsIGJlIGhvc3RpbGUsIGNhbiB0aGV5Pw==</li>
<li>V2h5IGRpZG4ndCB0aGV5IGxpc3Rlbj8=<br>
[/spoiler]</li>
</ol>
<p>They translate to:</p>
<p>[spoiler]1. “It can’t get any worse than this.”</p>
<ol>
<li>“The alien species can’t possibly all be hostile, can they?”</li>
<li>“Why didn’t they listen?”<br>
[/spoiler]</li>
</ol>
<p>EDIT: See my original post <a href="https://forums.blackmesasource.com/index.php/Thread/13735-ARG-The-Pizza-Code-Mystery/?postID=598857#post598857" data-bbcode="true" rel="nofollow noopener">here</a>.</p>
</blockquote>
</aside>
<p>Ehm, I decoded those already on last page  <img src="../../images/emoji/twitter/smileyc164.png?v=9" title=":smiley:" class="emoji" alt=":smiley:"></p>
        </div>

        <meta itemprop='headline' content='[ARG] The Pizza Code Mystery'>

        <div itemprop="interactionStatistic" itemscope itemtype="http://schema.org/InteractionCounter">
           <meta itemprop="interactionType" content="http://schema.org/LikeAction"/>
           <meta itemprop="userInteractionCount" content="0" />
           <span class='post-likes'></span>
         </div>

         <div itemprop="interactionStatistic" itemscope itemtype="http://schema.org/InteractionCounter">
            <meta itemprop="interactionType" content="http://schema.org/CommentAction"/>
            <meta itemprop="userInteractionCount" content="0" />
          </div>

      </div>
      <div itemscope itemtype='http://schema.org/DiscussionForumPosting' class='topic-body crawler-post'>
        <div class='crawler-post-meta'>
          <div itemprop='publisher' itemscope itemtype="http://schema.org/Organization">
            <meta itemprop='name' content='Pixelblast Media LLC'>
              <div itemprop='logo' itemscope itemtype="http://schema.org/ImageObject">
                <meta itemprop='url' content='../../uploads/default/original/2X/b/b4f2bc6e5e04e842eae8b788313c606f873a973b.png'>
              </div>
          </div>
          <span class="creator" itemprop="author" itemscope itemtype="http://schema.org/Person">
            <a itemprop="url" href='../../u/Shadowhand.html'><span itemprop='name'>Shadowhand</span></a>
            
          </span>

          <link itemprop="mainEntityOfPage" href="10393.html">


          <span class="crawler-post-infos">
              <meta itemprop='datePublished' content='2015-02-19T20:25:21Z'>
              <time itemprop='dateModified' datetime='2018-11-25T04:23:12Z' class='post-time'>
                November 25, 2018,  4:23am
              </time>
          <span itemprop='position'>#2517</span>
          </span>
        </div>
        <div class='post' itemprop='articleBody'>
          <aside class="quote no-group" data-username="Jacky">
<div class="title">
<div class="quote-controls"></div>
<img alt="" width="20" height="20" src="../../letter_avatar_proxy/v4/letter/j/ce73a5/40.png" class="avatar"> Jacky:</div>
<blockquote>
<p>Ehm, I decoded those already on last page</p>
</blockquote>
</aside>
<p>Yeah, but I was in the process of writing my big post before yours. Check it.  <img src="../../images/emoji/twitter/slight_smilec164.png?v=9" title=":slight_smile:" class="emoji" alt=":slight_smile:"></p>
        </div>

        <meta itemprop='headline' content='[ARG] The Pizza Code Mystery'>

        <div itemprop="interactionStatistic" itemscope itemtype="http://schema.org/InteractionCounter">
           <meta itemprop="interactionType" content="http://schema.org/LikeAction"/>
           <meta itemprop="userInteractionCount" content="0" />
           <span class='post-likes'></span>
         </div>

         <div itemprop="interactionStatistic" itemscope itemtype="http://schema.org/InteractionCounter">
            <meta itemprop="interactionType" content="http://schema.org/CommentAction"/>
            <meta itemprop="userInteractionCount" content="0" />
          </div>

      </div>
      <div itemscope itemtype='http://schema.org/DiscussionForumPosting' class='topic-body crawler-post'>
        <div class='crawler-post-meta'>
          <div itemprop='publisher' itemscope itemtype="http://schema.org/Organization">
            <meta itemprop='name' content='Pixelblast Media LLC'>
              <div itemprop='logo' itemscope itemtype="http://schema.org/ImageObject">
                <meta itemprop='url' content='../../uploads/default/original/2X/b/b4f2bc6e5e04e842eae8b788313c606f873a973b.png'>
              </div>
          </div>
          <span class="creator" itemprop="author" itemscope itemtype="http://schema.org/Person">
            <a itemprop="url" href='../../u/Jacky.html'><span itemprop='name'>Jacky</span></a>
            
          </span>

          <link itemprop="mainEntityOfPage" href="10393.html">


          <span class="crawler-post-infos">
              <meta itemprop='datePublished' content='2015-02-19T20:28:39Z'>
              <time itemprop='dateModified' datetime='2018-11-25T04:23:12Z' class='post-time'>
                November 25, 2018,  4:23am
              </time>
          <span itemprop='position'>#2518</span>
          </span>
        </div>
        <div class='post' itemprop='articleBody'>
          <aside class="quote no-group" data-username="Shadowhand">
<div class="title">
<div class="quote-controls"></div>
<img alt="" width="20" height="20" src="../../user_avatar/leakfree.org/shadowhand/40/5934_2.png" class="avatar"> Shadowhand:</div>
<blockquote>
<aside class="quote no-group" data-username="Jacky">
<div class="title">
<div class="quote-controls"></div>
<img alt="" width="20" height="20" src="../../letter_avatar_proxy/v4/letter/j/ce73a5/40.png" class="avatar"> Jacky:</div>
<blockquote>
<p>Ehm, I decoded those already on last page</p>
</blockquote>
</aside>
<p>Yeah, but I was in the process of writing my big post before yours. Check it.  <img src="../../images/emoji/twitter/slight_smilec164.png?v=9" title=":slight_smile:" class="emoji" alt=":slight_smile:"></p>
</blockquote>
</aside>
<p>I saw it, good job  :thumbup:</p>
        </div>

        <meta itemprop='headline' content='[ARG] The Pizza Code Mystery'>

        <div itemprop="interactionStatistic" itemscope itemtype="http://schema.org/InteractionCounter">
           <meta itemprop="interactionType" content="http://schema.org/LikeAction"/>
           <meta itemprop="userInteractionCount" content="0" />
           <span class='post-likes'></span>
         </div>

         <div itemprop="interactionStatistic" itemscope itemtype="http://schema.org/InteractionCounter">
            <meta itemprop="interactionType" content="http://schema.org/CommentAction"/>
            <meta itemprop="userInteractionCount" content="0" />
          </div>

      </div>
      <div itemscope itemtype='http://schema.org/DiscussionForumPosting' class='topic-body crawler-post'>
        <div class='crawler-post-meta'>
          <div itemprop='publisher' itemscope itemtype="http://schema.org/Organization">
            <meta itemprop='name' content='Pixelblast Media LLC'>
              <div itemprop='logo' itemscope itemtype="http://schema.org/ImageObject">
                <meta itemprop='url' content='../../uploads/default/original/2X/b/b4f2bc6e5e04e842eae8b788313c606f873a973b.png'>
              </div>
          </div>
          <span class="creator" itemprop="author" itemscope itemtype="http://schema.org/Person">
            <a itemprop="url" href='../../u/jadebenn.html'><span itemprop='name'>jadebenn</span></a>
            
          </span>

          <link itemprop="mainEntityOfPage" href="10393.html">


          <span class="crawler-post-infos">
              <meta itemprop='datePublished' content='2015-02-19T20:41:47Z'>
              <time itemprop='dateModified' datetime='2018-11-25T04:23:12Z' class='post-time'>
                November 25, 2018,  4:23am
              </time>
          <span itemprop='position'>#2519</span>
          </span>
        </div>
        <div class='post' itemprop='articleBody'>
          <p>So… this is… actual PROGRESS  =O</p>
<p>I almost though the ARG was never going to be solved! Great work guys!  8o</p>
<p>What do we know so far? I’m curious what the “live video feed” on the former BMRF us website is.</p>
        </div>

        <meta itemprop='headline' content='[ARG] The Pizza Code Mystery'>

        <div itemprop="interactionStatistic" itemscope itemtype="http://schema.org/InteractionCounter">
           <meta itemprop="interactionType" content="http://schema.org/LikeAction"/>
           <meta itemprop="userInteractionCount" content="0" />
           <span class='post-likes'></span>
         </div>

         <div itemprop="interactionStatistic" itemscope itemtype="http://schema.org/InteractionCounter">
            <meta itemprop="interactionType" content="http://schema.org/CommentAction"/>
            <meta itemprop="userInteractionCount" content="0" />
          </div>

      </div>
      <div itemscope itemtype='http://schema.org/DiscussionForumPosting' class='topic-body crawler-post'>
        <div class='crawler-post-meta'>
          <div itemprop='publisher' itemscope itemtype="http://schema.org/Organization">
            <meta itemprop='name' content='Pixelblast Media LLC'>
              <div itemprop='logo' itemscope itemtype="http://schema.org/ImageObject">
                <meta itemprop='url' content='../../uploads/default/original/2X/b/b4f2bc6e5e04e842eae8b788313c606f873a973b.png'>
              </div>
          </div>
          <span class="creator" itemprop="author" itemscope itemtype="http://schema.org/Person">
            <a itemprop="url" href='../../u/Shadowhand.html'><span itemprop='name'>Shadowhand</span></a>
            
          </span>

          <link itemprop="mainEntityOfPage" href="10393.html">


          <span class="crawler-post-infos">
              <meta itemprop='datePublished' content='2015-02-19T20:44:51Z'>
              <time itemprop='dateModified' datetime='2020-08-11T11:14:49Z' class='post-time'>
                August 11, 2020, 11:14am
              </time>
          <span itemprop='position'>#2520</span>
          </span>
        </div>
        <div class='post' itemprop='articleBody'>
          <p>I figured out what’s that unknown file (that’s supposed to be an MP4 file) is. Turns out, it really is an MP4 file! I was just being an idiot by copy-pasting the contents, rather than just save the file as MP4 directly from the browser.</p>
<p>Here’s the mediainfo output for it:</p>
<div class="spoiler">
<p>Complete name                            : C:\Users&lt;snip&gt;\Desktop\RGllLi4ueW91IGFsbCBkaWUuLi55b3UgYWxsIGRpZS4uLg==.mp4<br>
Format                                   : MPEG-4<br>
Format profile                           : Base Media<br>
Codec ID                                 : isom<br>
File size                                : 147 KiB<br>
Duration                                 : 9s 211ms<br>
Overall bit rate mode                    : Constant<br>
Overall bit rate                         : 130 Kbps<br>
Writing application                      : Lavf55.19.104</p>
<p>Audio<br>
ID                                       : 1<br>
Format                                   : AAC<br>
Format/Info                              : Advanced Audio Codec<br>
Format profile                           : LC<br>
Codec ID                                 : 40<br>
Duration                                 : 9s 211ms<br>
Duration_LastFrame                       : -8ms<br>
Bit rate mode                            : Constant<br>
Bit rate                                 : 128 Kbps<br>
Channel(s)                               : 2 channels<br>
Channel(s)_Original                      : 1 channel<br>
Channel positions                        : Front: C<br>
Sampling rate                            : 44.1 KHz<br>
Compression mode                         : Lossy<br>
Stream size                              : 144 KiB (98%)</p>
</div>
<p>And it’s nothing special. It’s just the static noise from the top directory <a href="https://www.kxbm.net/" data-bbcode="true" rel="nofollow noopener">kxbm.net</a>.</p>
<p>Although, it might have hidden audio clues, and that’s as far as my knowledge goes, so please, someone else pick it up.</p>
        </div>

        <meta itemprop='headline' content='[ARG] The Pizza Code Mystery'>

        <div itemprop="interactionStatistic" itemscope itemtype="http://schema.org/InteractionCounter">
           <meta itemprop="interactionType" content="http://schema.org/LikeAction"/>
           <meta itemprop="userInteractionCount" content="0" />
           <span class='post-likes'></span>
         </div>

         <div itemprop="interactionStatistic" itemscope itemtype="http://schema.org/InteractionCounter">
            <meta itemprop="interactionType" content="http://schema.org/CommentAction"/>
            <meta itemprop="userInteractionCount" content="0" />
          </div>

      </div>

    <div role='navigation' itemscope itemtype='http://schema.org/SiteNavigationElement' class="topic-body crawler-post">
        <span itemprop='name'><a rel="prev" itemprop="url" href="10393664c.html?page=125">← previous page</a></span>
        <span itemprop='name'><b><a rel="next" itemprop="url" href="103930e14.html?page=127">next page →</a></b></span>
    </div>





    </div>
    <footer class="container wrap">
      <nav class='crawler-nav'>
        <ul>
        <li itemscope itemtype='http://schema.org/SiteNavigationElement'>
          <span itemprop='name'>
            <a href='../../index.html' itemprop="url">Home </a>
          </span>
        </li>
        <li itemscope itemtype='http://schema.org/SiteNavigationElement'>
          <span itemprop='name'>
            <a href='../../categories.html' itemprop="url">Categories </a>
          </span>
        </li>
        <li itemscope itemtype='http://schema.org/SiteNavigationElement'>
          <span itemprop='name'>
            <a href='../../guidelines.html' itemprop="url">FAQ/Guidelines </a>
          </span>
        </li>
        <li itemscope itemtype='http://schema.org/SiteNavigationElement'>
          <span itemprop='name'>
            <a href='../../tos.html' itemprop="url">Terms of Service </a>
          </span>
        </li>
        <li itemscope itemtype='http://schema.org/SiteNavigationElement'>
          <span itemprop='name'>
            <a href='../../privacy.html' itemprop="url">Privacy Policy </a>
          </span>
        </li>
        </ul>
      </nav>
      <p class='powered-by-link'>Powered by <a href="https://www.discourse.org/">Discourse</a>, best viewed with JavaScript enabled</p>
    </footer>
    <div class="headerNotice">
    <div class="headerNoticeWrapper wrap">
        <p>Founded in 2004, Leakfree.org became one of the first online communities dedicated to Valve’s Source engine development. It is more famously known for the formation of Black Mesa: Source under the 'Leakfree Modification Team' handle in September 2004.</p>
    </div>
</div>
    
  </body>
  

<!-- Mirrored from leakfree.org/t/arg-the-pizza-code-mystery/10393?page=126 by HTTrack Website Copier/3.x [XR&CO'2014], Mon, 18 Jan 2021 16:00:35 GMT -->
</html>
